<?xml version="1.0" standalone="no"?>
<!DOCTYPE svg PUBLIC "-//W3C//DTD SVG 20010904//EN"
 "http://www.w3.org/TR/2001/REC-SVG-20010904/DTD/svg10.dtd">
<svg version="1.0" xmlns="http://www.w3.org/2000/svg"
 width="100.000000pt" height="100.000000pt" viewBox="0 0 100.000000 100.000000"
 preserveAspectRatio="xMidYMid meet">
<metadata>
Created by potrace 1.11, written by Peter Selinger 2001-2013
</metadata>
<g transform="translate(0.000000,100.000000) scale(0.100000,-0.100000)"
fill="#000000" stroke="none">
<path d="M705 960 c-24 -10 -58 -23 -65 -24 -3 -1 -11 -5 -17 -9 -7 -5 -13 -6
-13 -2 0 3 -13 -1 -30 -10 -16 -9 -30 -13 -30 -9 0 4 -6 1 -14 -5 -13 -11 -46
-22 -73 -23 -7 -1 -13 -5 -13 -9 0 -7 -49 -24 -62 -21 -5 1 -8 -3 -8 -8 0 -5
-3 -9 -7 -8 -9 2 -101 -27 -148 -47 -37 -16 -68 -28 -75 -29 -3 -1 -31 -10
-63 -21 -43 -14 -59 -25 -63 -42 -5 -18 10 -81 33 -143 3 -8 8 -24 10 -35 2
-10 13 -29 24 -41 11 -11 21 -29 24 -40 2 -10 9 -34 14 -53 6 -19 8 -38 5 -42
-3 -5 -1 -9 4 -9 5 0 12 -12 15 -28 5 -25 15 -72 21 -97 2 -5 6 -17 9 -25 6
-16 19 -73 18 -77 -4 -11 38 -38 54 -35 17 3 17 2 5 -7 -8 -6 -10 -11 -4 -11
6 0 17 6 24 14 6 8 18 12 26 9 9 -3 25 -1 37 4 50 23 86 30 95 21 6 -6 12 -5
17 3 6 8 4 10 -5 4 -9 -5 -11 -4 -6 4 6 9 11 9 24 -1 9 -8 13 -8 9 -2 -11 19
21 25 33 6 11 -16 11 -15 6 1 -4 12 -2 17 6 14 7 -2 19 3 26 12 8 9 11 11 8 5
-3 -7 1 -14 9 -17 9 -4 12 -1 8 9 -6 16 17 16 29 -1 5 -6 8 -3 8 6 0 9 6 16
13 16 22 1 42 8 50 18 5 6 7 0 4 -13 -3 -12 -1 -20 4 -16 5 3 9 11 9 19 0 8 5
17 12 21 8 5 9 2 4 -12 -6 -15 -2 -14 20 6 15 14 24 20 20 13 -4 -8 1 -11 13
-10 11 0 18 4 15 8 -2 4 0 10 6 14 5 3 10 1 10 -6 0 -8 4 -9 13 0 10 8 17 7
26 -2 10 -9 11 -8 5 8 -7 18 -6 19 11 5 10 -8 16 -10 12 -3 -4 6 -3 14 3 18 5
3 10 1 10 -5 0 -7 6 -8 18 -1 13 7 22 7 29 0 8 -8 13 -7 18 0 3 6 1 10 -5 9
-7 -2 -14 5 -15 14 -3 14 0 16 15 8 16 -9 18 -6 13 23 -3 17 -9 34 -14 36 -6
1 -2 10 8 18 10 8 13 12 7 9 -7 -3 -17 1 -24 9 -11 13 -10 14 1 10 10 -4 15 1
15 14 0 15 -3 17 -13 9 -10 -8 -13 -6 -13 5 0 9 5 19 10 22 6 4 8 11 4 16 -4
7 -10 6 -18 0 -9 -8 -12 -5 -12 12 1 12 6 25 11 29 6 4 2 8 -9 8 -15 0 -16 3
-6 15 7 8 9 15 4 15 -5 0 -2 5 6 11 13 9 13 10 0 6 -8 -2 -14 -11 -12 -18 2
-8 0 -10 -5 -6 -13 13 -10 31 7 39 12 5 12 7 -2 7 -12 1 -18 9 -18 26 0 14 -5
25 -11 25 -5 0 -8 4 -4 9 3 5 1 12 -5 16 -7 4 -7 13 0 26 8 15 7 21 -3 25 -7
2 -14 11 -14 19 0 12 4 12 21 -2 20 -18 20 -17 6 2 -8 11 -20 25 -27 32 -6 7
-10 26 -9 42 1 16 -1 28 -6 25 -13 -8 -48 35 -42 51 4 8 10 15 16 15 5 0 6 -4
3 -10 -3 -5 -1 -10 5 -10 7 0 9 6 6 13 -3 6 -9 20 -12 30 -4 9 -11 17 -16 17
-6 0 -8 7 -4 15 4 11 -37 68 -47 64 -1 0 -11 -4 -22 -9z m-3 -62 c-6 -6 -12
-4 -16 7 -3 9 -2 13 4 10 6 -3 10 0 11 7 0 10 2 10 6 0 3 -8 1 -18 -5 -24z
m31 -7 c3 -14 1 -18 -9 -14 -15 6 -18 16 -7 26 9 10 10 9 16 -12z m-163 -31
c0 -5 5 -10 11 -10 13 0 33 -21 37 -38 2 -10 -2 -10 -19 -1 -15 8 -19 8 -15 0
13 -20 -6 -11 -30 14 -13 15 -24 20 -26 13 -3 -7 -7 -5 -11 6 -4 9 -3 15 2 11
5 -3 12 -1 16 5 8 13 35 13 35 0z m200 -58 c0 -15 -2 -15 -10 -2 -8 12 -10 12
-10 1 0 -8 -2 -12 -5 -9 -3 3 -3 13 1 22 7 19 24 11 24 -12z m-372 -8 c38 -3
43 -5 37 -14 -3 -5 1 -10 9 -10 9 0 16 -5 16 -11 0 -5 -4 -7 -10 -4 -5 3 -10
2 -10 -4 0 -17 -43 -2 -67 23 -15 17 -18 26 -10 29 7 2 14 1 17 -2 3 -3 11 -6
18 -7z m332 0 c0 -10 -6 -14 -14 -11 -7 3 -18 1 -22 -3 -5 -5 -18 -11 -29 -13
-11 -1 -26 -6 -32 -10 -7 -5 -17 -6 -22 -3 -5 4 -12 1 -14 -4 -3 -6 -4 -5 -3
2 2 7 11 12 20 12 9 -1 16 4 16 11 0 8 8 14 18 14 52 2 72 6 72 13 0 4 2 8 5
8 3 0 5 -7 5 -16z m-500 -55 c0 -5 3 -8 8 -6 4 3 20 -5 35 -17 16 -13 22 -23
15 -23 -7 0 -17 -2 -23 -3 -22 -5 -46 1 -40 10 3 6 -1 10 -9 10 -21 0 -31 21
-15 31 19 12 29 11 29 -2z m430 -30 c0 -5 -7 -9 -15 -9 -15 0 -20 12 -9 23 8
8 24 -1 24 -14z m-45 1 c-3 -5 -3 -10 2 -10 19 -1 33 -18 27 -34 -5 -14 -9
-14 -22 -4 -13 11 -15 10 -9 -6 6 -16 5 -17 -8 -6 -14 11 -13 14 1 25 12 8 14
14 5 19 -10 7 -7 26 5 26 3 0 2 -4 -1 -10z m175 -10 c0 -5 -5 -10 -11 -10 -5
0 -7 5 -4 10 3 6 8 10 11 10 2 0 4 -4 4 -10z m-696 -42 c-3 -4 2 -8 10 -8 9 0
16 -5 16 -12 0 -6 -3 -8 -7 -5 -3 4 -12 2 -19 -4 -14 -12 -21 -3 -28 34 -4 24
-3 25 14 15 10 -7 16 -16 14 -20z m396 5 c0 -3 -7 -3 -15 1 -8 3 -15 1 -15 -3
0 -5 5 -11 11 -13 7 -2 7 -11 0 -28 -5 -14 -10 -21 -10 -16 -1 5 -7 3 -15 -3
-11 -9 -16 -9 -22 0 -4 8 -3 9 4 5 8 -5 11 0 8 16 -4 27 20 59 40 51 8 -3 14
-7 14 -10z m-190 -84 c-12 -27 -40 -41 -40 -19 0 6 8 10 18 10 15 1 15 2 -2
12 -18 10 -18 11 5 29 28 21 36 9 19 -32z m-164 -14 c1 -8 -5 -15 -14 -15 -15
0 -15 -2 -2 -10 13 -8 13 -11 1 -22 -8 -7 -11 -8 -8 -2 4 7 0 17 -8 24 -14 11
-14 15 1 31 18 20 26 18 30 -6z"/>
<path d="M443 635 c0 -7 6 -11 14 -8 7 3 13 6 13 8 0 2 -6 5 -13 8 -8 3 -14
-1 -14 -8z"/>
<path d="M109 563 c-13 -16 -12 -17 4 -4 9 7 17 15 17 17 0 8 -8 3 -21 -13z"/>
<path d="M780 906 c0 -2 7 -7 16 -10 8 -3 12 -2 9 4 -6 10 -25 14 -25 6z"/>
<path d="M955 309 c-4 -6 -5 -12 -2 -15 2 -3 7 2 10 11 7 17 1 20 -8 4z"/>
</g>
</svg>
